<svg width="100%" height="100%" viewBox="0 0 482 270" version="1.1" xmlns="http://www.w3.org/2000/svg" xmlns:xlink="http://www.w3.org/1999/xlink" xml:space="preserve" style="fill-rule:evenodd;clip-rule:evenodd;stroke-linejoin:round;stroke-miterlimit:2;"><g><g><g><path d="M14.173,88.756l10.218,-0l0,-62.964l-10.218,-0l0,-1.289l28.905,0l-0,1.289l-9.482,-0l0,29.273l0.921,-0l27.8,-29.273l-9.574,-0l0,-1.289l19.055,0l0,1.289l-7.64,-0l-23.382,24.762l33.416,38.202l6.075,-0l0,1.289l-26.603,-0l-0,-1.289l8.285,-0l-27.616,-32.403l-0.737,0l0,32.403l9.482,-0l-0,1.289l-28.905,-0l0,-1.289Z" style="fill:#253c75;fill-rule:nonzero;"/><path d="M126.996,90.045l-16.075,-0l-0,-9.298l-0.185,0c-0.552,1.228 -1.212,2.47 -1.979,3.728c-0.767,1.258 -1.718,2.394 -2.853,3.406c-1.136,1.013 -2.455,1.841 -3.959,2.486c-1.503,0.644 -3.267,0.966 -5.293,0.966c-2.454,0 -4.449,-0.276 -5.983,-0.828c-1.534,-0.552 -2.731,-1.135 -3.59,-1.749c-0.43,-0.307 -0.905,-0.691 -1.427,-1.151c-0.522,-0.46 -0.997,-1.089 -1.427,-1.887c-0.429,-0.798 -0.798,-1.826 -1.104,-3.084c-0.307,-1.258 -0.461,-2.807 -0.461,-4.648l0,-26.143l-7.088,-0l0,-1.289l15.005,0l-0,28.26c-0,1.596 0.107,3.069 0.322,4.419c0.215,1.35 0.629,2.531 1.243,3.544c0.613,1.012 1.411,1.81 2.393,2.393c0.982,0.583 2.271,0.875 3.866,0.875c1.35,-0 2.747,-0.399 4.189,-1.197c1.442,-0.798 2.761,-1.933 3.958,-3.406c1.197,-1.473 2.194,-3.237 2.992,-5.293c0.798,-2.056 1.196,-4.373 1.196,-6.95l0,-21.356l-6.996,-0l0,-1.289l14.913,0l-0,38.202l8.343,-0l-0,1.289Z" style="fill:#253c75;fill-rule:nonzero;"/><path d="M125.925,88.756l7.088,-0l0,-63.793l-7.088,0l0,-1.288l15.005,-0l-0,65.081l7.088,-0l-0,1.289l-22.093,-0l0,-1.289Z" style="fill:#253c75;fill-rule:nonzero;"/><path d="M147.557,50.554l7.089,0l-0,-11.875c0.49,0.184 0.951,0.338 1.38,0.46c0.43,0.123 1.166,0.185 2.21,0.185c0.92,-0 1.718,-0.108 2.393,-0.323c0.675,-0.214 1.319,-0.567 1.933,-1.058l0,12.611l13.072,0l-0,1.289l-13.072,-0l0,30.101c0,1.718 0.169,3.114 0.506,4.188c0.338,1.074 0.783,1.903 1.335,2.486c0.552,0.583 1.151,0.966 1.795,1.15c0.645,0.185 1.274,0.277 1.887,0.277c2.148,-0 3.882,-0.783 5.201,-2.348c1.32,-1.565 2.163,-3.36 2.532,-5.385l1.288,0.46c-0.184,0.798 -0.46,1.688 -0.828,2.67c-0.368,0.982 -0.936,1.918 -1.703,2.808c-0.767,0.889 -1.764,1.626 -2.992,2.209c-1.227,0.583 -2.761,0.874 -4.602,0.874c-4.603,0 -7.81,-0.89 -9.62,-2.669c-1.81,-1.78 -2.715,-4.296 -2.715,-7.549l-0,-29.272l-7.089,-0l0,-1.289Z" style="fill:#253c75;fill-rule:nonzero;"/><path d="M224.421,90.045l-14.82,-0l-0,-9.298l-0.184,0c-0.552,1.228 -1.212,2.47 -1.979,3.728c-0.767,1.258 -1.719,2.394 -2.854,3.406c-1.135,1.013 -2.455,1.841 -3.958,2.486c-1.504,0.644 -3.268,0.966 -5.293,0.966c-2.455,0 -4.449,-0.276 -5.984,-0.828c-1.534,-0.552 -2.731,-1.135 -3.59,-1.749c-0.429,-0.307 -0.905,-0.691 -1.426,-1.151c-0.522,-0.46 -0.998,-1.089 -1.427,-1.887c-0.43,-0.798 -0.798,-1.826 -1.105,-3.084c-0.307,-1.258 -0.46,-2.807 -0.46,-4.648l-0,-26.143l-7.088,-0l-0,-1.289l15.004,0l0,28.26c0,1.596 0.108,3.069 0.323,4.419c0.214,1.35 0.629,2.531 1.242,3.544c0.614,1.012 1.412,1.81 2.394,2.393c0.981,0.583 2.27,0.875 3.866,0.875c1.35,-0 2.746,-0.399 4.188,-1.197c1.442,-0.798 2.762,-1.933 3.958,-3.406c1.197,-1.473 2.194,-3.237 2.992,-5.293c0.798,-2.056 1.197,-4.373 1.197,-6.95l-0,-21.356l-6.996,-0l-0,-1.289l14.912,0l0,38.202l7.088,-0l0,1.289Z" style="fill:#253c75;fill-rule:nonzero;"/><path d="M224.513,88.756l7.089,-0l-0,-36.913l-7.089,-0l0,-1.289l14.821,0l-0,9.297l0.184,0c0.246,-0.92 0.644,-1.963 1.197,-3.129c0.552,-1.166 1.319,-2.286 2.301,-3.36c0.982,-1.074 2.163,-1.98 3.544,-2.716c1.381,-0.736 3.053,-1.105 5.017,-1.105c1.411,0 2.639,0.231 3.682,0.691c1.043,0.46 1.902,1.043 2.578,1.749c0.675,0.706 1.166,1.519 1.472,2.439c0.307,0.921 0.461,1.841 0.461,2.762c-0,2.025 -0.461,3.375 -1.381,4.05c-0.921,0.675 -1.995,1.013 -3.222,1.013c-2.7,-0 -4.05,-0.859 -4.05,-2.578c-0,-0.552 0.061,-0.997 0.184,-1.335c0.123,-0.337 0.261,-0.675 0.414,-1.012c0.153,-0.338 0.292,-0.721 0.414,-1.151c0.123,-0.429 0.184,-1.043 0.184,-1.841c0,-1.964 -1.074,-2.946 -3.221,-2.946c-0.982,0 -2.026,0.369 -3.13,1.105c-1.105,0.737 -2.133,1.81 -3.084,3.222c-0.951,1.411 -1.749,3.114 -2.393,5.109c-0.645,1.994 -0.967,4.28 -0.967,6.858l0,21.08l8.009,-0l-0,1.289l-23.014,-0l0,-1.289Z" style="fill:#253c75;fill-rule:nonzero;"/><path d="M257.192,88.756l7.088,-0l0,-36.913l-7.088,-0l0,-1.289l14.821,0l-0,9.85l0.184,-0c0.368,-0.798 0.905,-1.811 1.611,-3.038c0.705,-1.227 1.672,-2.424 2.899,-3.59c1.228,-1.166 2.762,-2.163 4.603,-2.992c1.841,-0.828 4.081,-1.243 6.72,-1.243c4.05,0 7.349,0.982 9.895,2.946c2.547,1.964 3.821,5.094 3.821,9.389l-0,26.88l7.088,-0l-0,1.289l-22.093,-0l0,-1.289l7.088,-0l0,-29.733c0,-2.394 -0.568,-4.357 -1.703,-5.892c-1.135,-1.534 -2.9,-2.301 -5.293,-2.301c-1.964,0 -3.835,0.43 -5.615,1.289c-1.78,0.859 -3.345,2.056 -4.695,3.59c-1.35,1.534 -2.408,3.345 -3.176,5.431c-0.767,2.087 -1.15,4.357 -1.15,6.812l-0,20.804l7.088,-0l-0,1.289l-22.093,-0l0,-1.289Z" style="fill:#253c75;fill-rule:nonzero;"/><path d="M334.424,67.492l-0.184,-0c-0.123,0.797 -1.135,1.595 -3.038,2.393l-6.903,2.762c-1.964,0.797 -3.468,1.917 -4.511,3.36c-1.043,1.442 -1.565,3.237 -1.565,5.385c0,0.92 0.092,1.871 0.276,2.853c0.184,0.982 0.522,1.857 1.013,2.624c0.491,0.767 1.181,1.396 2.071,1.887c0.89,0.491 2.04,0.736 3.452,0.736c2.025,0 3.667,-0.429 4.925,-1.288c1.258,-0.86 2.209,-1.934 2.853,-3.222c0.645,-1.289 1.074,-2.685 1.289,-4.189c0.215,-1.503 0.322,-2.869 0.322,-4.096l0,-9.205Zm16.11,21.54c-0.798,0.614 -1.749,1.151 -2.854,1.611c-1.105,0.46 -2.455,0.69 -4.05,0.69c-2.946,0 -5.079,-0.629 -6.398,-1.887c-1.319,-1.258 -2.225,-3.022 -2.716,-5.293l-0.184,0c-0.245,0.553 -0.583,1.243 -1.012,2.071c-0.43,0.829 -1.09,1.627 -1.979,2.394c-0.89,0.767 -2.072,1.411 -3.544,1.933c-1.473,0.522 -3.345,0.782 -5.616,0.782c-2.577,0 -4.633,-0.291 -6.167,-0.874c-1.534,-0.583 -2.731,-1.304 -3.59,-2.163c-0.859,-0.86 -1.427,-1.826 -1.703,-2.9c-0.276,-1.074 -0.414,-2.071 -0.414,-2.992c-0,-2.148 0.429,-3.866 1.288,-5.155c0.859,-1.288 1.979,-2.316 3.36,-3.083c1.381,-0.768 2.915,-1.397 4.603,-1.888c1.687,-0.491 3.39,-1.012 5.109,-1.564c2.025,-0.676 3.697,-1.259 5.017,-1.749c1.319,-0.491 2.347,-1.09 3.083,-1.795c0.737,-0.706 1.243,-1.596 1.519,-2.67c0.276,-1.074 0.414,-2.531 0.414,-4.373c0,-1.472 -0.092,-2.792 -0.276,-3.958c-0.184,-1.166 -0.521,-2.163 -1.012,-2.991c-0.491,-0.829 -1.197,-1.458 -2.117,-1.888c-0.921,-0.429 -2.148,-0.644 -3.683,-0.644c-2.025,0 -3.697,0.353 -5.016,1.059c-1.32,0.705 -1.98,1.856 -1.98,3.452c0,1.043 0.092,2.071 0.277,3.083c0.184,1.013 0.276,1.765 0.276,2.256c-0,0.859 -0.307,1.58 -0.921,2.163c-0.613,0.583 -1.503,0.874 -2.669,0.874c-2.025,0 -3.284,-0.368 -3.774,-1.104c-0.491,-0.737 -0.737,-1.688 -0.737,-2.854c0,-1.35 0.307,-2.639 0.921,-3.866c0.613,-1.227 1.519,-2.317 2.715,-3.268c1.197,-0.951 2.7,-1.703 4.511,-2.255c1.81,-0.553 3.881,-0.829 6.213,-0.829c2.823,0 5.186,0.353 7.088,1.059c1.903,0.706 3.437,1.657 4.603,2.854c1.166,1.196 1.994,2.546 2.485,4.05c0.491,1.503 0.737,3.084 0.737,4.741l-0,22.921c-0,1.779 0.276,2.976 0.828,3.59c0.553,0.613 1.35,0.92 2.394,0.92c0.675,0 1.38,-0.122 2.117,-0.368c0.736,-0.245 1.442,-0.614 2.117,-1.105l0.737,1.013Z" style="fill:#253c75;fill-rule:nonzero;"/><path d="M387.263,79.919c-0.185,0.675 -0.537,1.641 -1.059,2.899c-0.522,1.259 -1.35,2.517 -2.485,3.775c-1.136,1.258 -2.67,2.362 -4.603,3.314c-1.933,0.951 -4.434,1.426 -7.502,1.426c-2.332,0 -4.756,-0.368 -7.273,-1.104c-2.516,-0.737 -4.817,-1.918 -6.904,-3.544c-2.086,-1.627 -3.789,-3.759 -5.108,-6.398c-1.32,-2.639 -1.98,-5.891 -1.98,-9.758c0,-3.007 0.568,-5.799 1.703,-8.376c1.136,-2.578 2.67,-4.818 4.603,-6.72c1.933,-1.903 4.204,-3.391 6.812,-4.465c2.608,-1.074 5.385,-1.611 8.331,-1.611c1.657,0 3.36,0.2 5.109,0.599c1.749,0.399 3.344,1.012 4.786,1.841c1.443,0.828 2.639,1.902 3.59,3.222c0.952,1.319 1.427,2.93 1.427,4.832c0,1.289 -0.414,2.348 -1.242,3.176c-0.829,0.829 -2.01,1.243 -3.545,1.243c-1.043,-0 -2.04,-0.23 -2.991,-0.691c-0.951,-0.46 -1.427,-1.242 -1.427,-2.347c-0,-0.859 0.215,-1.902 0.644,-3.13c0.43,-1.227 0.645,-2.24 0.645,-3.037c-0,-1.412 -0.706,-2.501 -2.118,-3.268c-1.411,-0.767 -3.037,-1.151 -4.878,-1.151c-1.35,0 -2.747,0.169 -4.189,0.506c-1.442,0.338 -2.761,1.182 -3.958,2.532c-1.197,1.35 -2.179,3.375 -2.946,6.075c-0.767,2.7 -1.15,6.383 -1.15,11.047c-0,2.638 0.168,5.124 0.506,7.456c0.338,2.332 0.951,4.372 1.841,6.121c0.89,1.749 2.117,3.13 3.682,4.143c1.565,1.012 3.606,1.519 6.122,1.519c2.7,-0 4.924,-0.399 6.673,-1.197c1.749,-0.798 3.13,-1.764 4.143,-2.9c1.012,-1.135 1.764,-2.286 2.255,-3.452c0.491,-1.166 0.859,-2.117 1.105,-2.853l1.381,0.276Z" style="fill:#253c75;fill-rule:nonzero;"/><path d="M387.263,88.756l7.088,-0l-0,-63.793l-7.088,0l-0,-1.288l15.004,-0l0,36.176l0.184,0c0.307,-0.797 0.829,-1.795 1.565,-2.991c0.737,-1.197 1.734,-2.332 2.992,-3.406c1.258,-1.074 2.792,-1.995 4.602,-2.762c1.811,-0.767 3.974,-1.151 6.49,-1.151c4.05,0 7.349,0.982 9.896,2.946c2.547,1.964 3.82,5.094 3.82,9.389l0,26.88l7.088,-0l0,1.289l-22.093,-0l0,-1.289l7.088,-0l0,-29.733c0,-2.394 -0.567,-4.357 -1.702,-5.892c-1.136,-1.534 -2.9,-2.301 -5.294,-2.301c-1.963,0 -3.835,0.43 -5.615,1.289c-1.779,0.859 -3.344,2.056 -4.694,3.59c-1.351,1.534 -2.409,3.345 -3.176,5.431c-0.767,2.087 -1.151,4.357 -1.151,6.812l0,20.804l7.088,-0l0,1.289l-22.092,-0l-0,-1.289Z" style="fill:#253c75;fill-rule:nonzero;"/><path d="M438.168,50.554l7.088,0l-0,-11.875c0.491,0.184 0.951,0.338 1.38,0.46c0.43,0.123 1.166,0.185 2.21,0.185c0.92,-0 1.718,-0.108 2.393,-0.323c0.675,-0.214 1.32,-0.567 1.933,-1.058l0,12.611l13.072,0l-0,1.289l-13.072,-0l0,30.101c0,1.718 0.169,3.114 0.507,4.188c0.337,1.074 0.782,1.903 1.334,2.486c0.553,0.583 1.151,0.966 1.795,1.15c0.645,0.185 1.274,0.277 1.887,0.277c2.148,-0 3.882,-0.783 5.201,-2.348c1.32,-1.565 2.164,-3.36 2.532,-5.385l1.289,0.46c-0.185,0.798 -0.461,1.688 -0.829,2.67c-0.368,0.982 -0.936,1.918 -1.703,2.808c-0.767,0.889 -1.764,1.626 -2.992,2.209c-1.227,0.583 -2.761,0.874 -4.602,0.874c-4.603,0 -7.809,-0.89 -9.62,-2.669c-1.81,-1.78 -2.715,-4.296 -2.715,-7.549l-0,-29.272l-7.088,-0l-0,-1.289Z" style="fill:#253c75;fill-rule:nonzero;"/></g><g><path d="M47.274,153.107l10.218,0l-0,-62.964l-10.218,0l-0,-1.289l52.654,0l-0,15.926l-1.013,-0c-0.798,-2.394 -1.657,-4.496 -2.577,-6.306c-0.921,-1.81 -2.025,-3.345 -3.314,-4.603c-1.289,-1.258 -2.823,-2.194 -4.603,-2.807c-1.779,-0.614 -3.927,-0.921 -6.443,-0.921l-15.281,0l-0,29.825l5.983,0c2.025,0 3.744,-0.184 5.155,-0.552c1.412,-0.368 2.624,-1.059 3.636,-2.071c1.013,-1.013 1.872,-2.394 2.578,-4.143c0.705,-1.749 1.396,-4.004 2.071,-6.766l1.012,0l0,28.629l-1.012,-0c-0.43,-1.78 -0.875,-3.498 -1.335,-5.155c-0.46,-1.657 -1.104,-3.13 -1.933,-4.419c-0.828,-1.288 -1.933,-2.316 -3.314,-3.083c-1.381,-0.767 -3.176,-1.151 -5.385,-1.151l-7.456,-0l-0,31.85l10.218,0l-0,1.289l-29.641,-0l-0,-1.289Z" style="fill:#253c75;fill-rule:nonzero;"/><path d="M103.886,153.107l7.088,0l0,-63.063l-7.088,-0l0,-1.289l15.005,0l-0,64.352l7.088,0l-0,1.289l-22.093,-0l0,-1.289Z" style="fill:#253c75;fill-rule:nonzero;"/><path d="M156.356,130.278c0.123,-0.859 0.184,-1.657 0.184,-2.393l0,-2.302c0,-2.086 -0.199,-3.804 -0.598,-5.155c-0.399,-1.35 -0.951,-2.424 -1.657,-3.221c-0.706,-0.798 -1.565,-1.366 -2.578,-1.703c-1.012,-0.338 -2.101,-0.507 -3.267,-0.507c-2.087,0 -3.805,0.415 -5.155,1.243c-1.351,0.829 -2.424,1.949 -3.222,3.36c-0.798,1.411 -1.396,3.038 -1.795,4.879c-0.399,1.841 -0.66,3.774 -0.783,5.799l18.871,0Zm-18.963,1.289c0,0.614 -0.015,1.243 -0.046,1.887c-0.03,0.644 -0.046,1.457 -0.046,2.439c0,2.025 0.123,4.143 0.368,6.352c0.246,2.209 0.783,4.204 1.611,5.983c0.829,1.78 2.056,3.253 3.682,4.419c1.627,1.166 3.79,1.749 6.49,1.749c2.7,-0 4.925,-0.399 6.674,-1.197c1.749,-0.798 3.13,-1.764 4.142,-2.899c1.013,-1.136 1.765,-2.286 2.256,-3.452c0.491,-1.166 0.859,-2.118 1.104,-2.854l1.381,0.276c-0.184,0.675 -0.537,1.642 -1.059,2.9c-0.521,1.258 -1.35,2.516 -2.485,3.774c-1.135,1.258 -2.67,2.363 -4.603,3.314c-1.933,0.951 -4.434,1.427 -7.502,1.427c-3.068,-0 -5.907,-0.491 -8.515,-1.473c-2.608,-0.982 -4.863,-2.394 -6.766,-4.235c-1.902,-1.841 -3.375,-4.035 -4.418,-6.581c-1.043,-2.547 -1.565,-5.385 -1.565,-8.515c-0,-2.7 0.537,-5.324 1.611,-7.871c1.074,-2.547 2.547,-4.802 4.418,-6.766c1.872,-1.963 4.066,-3.544 6.582,-4.74c2.516,-1.197 5.216,-1.795 8.101,-1.795c1.718,-0 3.559,0.306 5.523,0.92c1.964,0.614 3.789,1.611 5.477,2.992c1.688,1.381 3.099,3.206 4.234,5.477c1.136,2.271 1.703,5.094 1.703,8.469l-28.352,-0Z" style="fill:#253c75;fill-rule:nonzero;"/><path d="M167.679,153.107l7.088,0l-0,-36.913l-7.088,0l-0,-1.289l14.82,0l0,9.85l0.184,-0c0.368,-0.798 0.905,-1.81 1.611,-3.038c0.706,-1.227 1.672,-2.424 2.9,-3.59c1.227,-1.166 2.761,-2.163 4.602,-2.992c1.841,-0.828 4.081,-1.242 6.72,-1.242c4.05,-0 7.349,0.982 9.896,2.945c2.547,1.964 3.82,5.094 3.82,9.39l0,26.879l7.088,0l0,1.289l-22.093,-0l0,-1.289l7.088,0l0,-29.733c0,-2.393 -0.567,-4.357 -1.702,-5.891c-1.136,-1.534 -2.9,-2.302 -5.294,-2.302c-1.963,0 -3.835,0.43 -5.615,1.289c-1.779,0.859 -3.344,2.056 -4.694,3.59c-1.351,1.534 -2.409,3.345 -3.176,5.431c-0.767,2.087 -1.151,4.358 -1.151,6.812l0,20.804l7.088,0l0,1.289l-22.092,-0l-0,-1.289Z" style="fill:#253c75;fill-rule:nonzero;"/><path d="M222.174,141.509l1.012,-0c0.43,1.472 0.982,2.961 1.657,4.464c0.675,1.504 1.58,2.884 2.716,4.142c1.135,1.258 2.531,2.286 4.188,3.084c1.657,0.798 3.652,1.197 5.984,1.197c1.963,-0 3.712,-0.598 5.247,-1.795c1.534,-1.197 2.301,-3.145 2.301,-5.845c-0,-2.332 -0.598,-3.974 -1.795,-4.925c-1.197,-0.951 -2.593,-1.703 -4.189,-2.256l-7.18,-2.485c-0.92,-0.307 -1.917,-0.69 -2.991,-1.151c-1.074,-0.46 -2.072,-1.104 -2.992,-1.933c-0.921,-0.828 -1.672,-1.887 -2.255,-3.176c-0.583,-1.288 -0.875,-2.945 -0.875,-4.97c0,-1.719 0.338,-3.314 1.013,-4.787c0.675,-1.473 1.595,-2.762 2.761,-3.866c1.166,-1.105 2.562,-1.964 4.189,-2.578c1.626,-0.614 3.39,-0.92 5.293,-0.92c1.35,-0 2.439,0.107 3.268,0.322c0.828,0.215 1.549,0.429 2.163,0.644c0.614,0.215 1.166,0.43 1.657,0.645c0.491,0.214 1.074,0.322 1.749,0.322c0.675,-0 1.166,-0.246 1.473,-0.737l1.012,0l0,10.494l-1.012,0c-0.43,-1.35 -0.921,-2.654 -1.473,-3.912c-0.553,-1.258 -1.212,-2.378 -1.979,-3.36c-0.767,-0.982 -1.719,-1.749 -2.854,-2.301c-1.135,-0.552 -2.47,-0.829 -4.004,-0.829c-2.946,0 -5.232,0.66 -6.858,1.98c-1.626,1.319 -2.44,3.083 -2.44,5.293c0,1.963 0.691,3.452 2.072,4.464c1.38,1.013 3.421,1.949 6.121,2.808l6.72,2.209c2.884,0.982 5.247,2.332 7.088,4.05c1.841,1.719 2.762,3.989 2.762,6.812c-0,1.657 -0.323,3.283 -0.967,4.879c-0.644,1.596 -1.596,2.992 -2.854,4.188c-1.258,1.197 -2.792,2.164 -4.602,2.9c-1.811,0.736 -3.882,1.105 -6.214,1.105c-1.35,-0 -2.593,-0.138 -3.728,-0.415c-1.135,-0.276 -2.178,-0.567 -3.13,-0.874c-0.951,-0.307 -1.825,-0.598 -2.623,-0.875c-0.798,-0.276 -1.534,-0.414 -2.209,-0.414c-0.676,0 -1.166,0.138 -1.473,0.414c-0.307,0.277 -0.553,0.568 -0.737,0.875l-1.012,-0l-0,-12.887Z" style="fill:#253c75;fill-rule:nonzero;"/><path d="M292.226,133.316c-0,-2.823 -0.154,-5.355 -0.461,-7.594c-0.306,-2.24 -0.843,-4.158 -1.61,-5.754c-0.768,-1.595 -1.841,-2.823 -3.222,-3.682c-1.381,-0.859 -3.145,-1.289 -5.293,-1.289c-2.271,0 -4.143,0.399 -5.616,1.197c-1.472,0.798 -2.669,1.81 -3.59,3.038c-0.675,0.859 -1.212,1.779 -1.61,2.761c-0.399,0.982 -0.722,2.148 -0.967,3.498c-0.246,1.35 -0.414,2.9 -0.506,4.649c-0.092,1.749 -0.138,3.82 -0.138,6.214c-0,2.025 0.153,4.111 0.46,6.259c0.307,2.148 0.89,4.097 1.749,5.846c0.859,1.748 2.071,3.175 3.636,4.28c1.565,1.105 3.636,1.657 6.213,1.657c2.517,-0 4.511,-0.491 5.984,-1.473c1.473,-0.982 2.577,-2.393 3.314,-4.234c0.736,-1.841 1.196,-4.066 1.381,-6.674c0.184,-2.608 0.276,-5.508 0.276,-8.699Zm-38.018,19.791l7.088,0l0,-63.063l-7.088,0l0,-1.289l15.005,0l-0,33.515l0.184,-0c0.859,-2.394 2.332,-4.419 4.418,-6.076c2.087,-1.657 4.818,-2.485 8.193,-2.485c2.639,-0 5.124,0.567 7.456,1.703c2.332,1.135 4.388,2.638 6.168,4.51c1.779,1.872 3.191,4.066 4.234,6.582c1.043,2.516 1.565,5.155 1.565,7.916c0,2.823 -0.537,5.508 -1.611,8.055c-1.074,2.547 -2.531,4.802 -4.372,6.766c-1.841,1.964 -3.974,3.529 -6.398,4.695c-2.424,1.166 -4.986,1.749 -7.686,1.749c-2.087,-0 -3.851,-0.353 -5.293,-1.059c-1.443,-0.706 -2.639,-1.55 -3.591,-2.531c-0.951,-0.982 -1.672,-1.995 -2.163,-3.038c-0.491,-1.043 -0.859,-1.933 -1.104,-2.67l-0.185,0l0,8.009l-14.82,-0l0,-1.289Z" style="fill:#253c75;fill-rule:nonzero;"/><path d="M353.993,154.396l-14.82,-0l-0,-9.297l-0.185,-0c-0.552,1.227 -1.212,2.47 -1.979,3.728c-0.767,1.258 -1.718,2.393 -2.853,3.406c-1.136,1.012 -2.455,1.841 -3.959,2.485c-1.503,0.644 -3.267,0.967 -5.293,0.967c-2.454,-0 -4.449,-0.277 -5.983,-0.829c-1.534,-0.552 -2.731,-1.135 -3.59,-1.749c-0.43,-0.307 -0.905,-0.69 -1.427,-1.151c-0.521,-0.46 -0.997,-1.089 -1.427,-1.887c-0.429,-0.797 -0.797,-1.825 -1.104,-3.083c-0.307,-1.258 -0.461,-2.808 -0.461,-4.649l0,-26.143l-7.088,0l0,-1.289l15.005,0l-0,28.26c-0,1.596 0.107,3.069 0.322,4.419c0.215,1.35 0.629,2.531 1.243,3.544c0.614,1.013 1.411,1.81 2.393,2.393c0.982,0.583 2.271,0.875 3.866,0.875c1.351,-0 2.747,-0.399 4.189,-1.197c1.442,-0.798 2.761,-1.933 3.958,-3.406c1.197,-1.473 2.194,-3.237 2.992,-5.293c0.798,-2.056 1.196,-4.372 1.196,-6.95l0,-21.356l-6.996,0l0,-1.289l14.913,0l0,38.202l7.088,0l0,1.289Z" style="fill:#253c75;fill-rule:nonzero;"/><path d="M354.085,153.107l7.088,0l0,-36.913l-7.088,0l0,-1.289l14.821,0l-0,9.298l0.184,-0c0.245,-0.921 0.644,-1.964 1.196,-3.13c0.553,-1.166 1.32,-2.286 2.302,-3.36c0.982,-1.074 2.163,-1.979 3.544,-2.716c1.381,-0.736 3.053,-1.104 5.017,-1.104c1.411,-0 2.638,0.23 3.682,0.69c1.043,0.46 1.902,1.043 2.577,1.749c0.675,0.706 1.166,1.519 1.473,2.44c0.307,0.92 0.46,1.841 0.46,2.761c0,2.025 -0.46,3.375 -1.381,4.05c-0.92,0.675 -1.994,1.013 -3.221,1.013c-2.701,0 -4.051,-0.859 -4.051,-2.577c0,-0.553 0.062,-0.998 0.184,-1.335c0.123,-0.338 0.261,-0.675 0.415,-1.013c0.153,-0.337 0.291,-0.721 0.414,-1.15c0.123,-0.43 0.184,-1.044 0.184,-1.842c0,-1.963 -1.074,-2.945 -3.222,-2.945c-0.982,-0 -2.025,0.368 -3.13,1.104c-1.104,0.737 -2.132,1.811 -3.083,3.222c-0.952,1.412 -1.749,3.115 -2.394,5.109c-0.644,1.995 -0.966,4.281 -0.966,6.858l-0,21.08l8.008,0l0,1.289l-23.013,-0l0,-1.289Z" style="fill:#253c75;fill-rule:nonzero;"/><path d="M402.321,157.157c-0.798,0.491 -1.611,0.998 -2.44,1.519c-0.828,0.522 -1.565,1.182 -2.209,1.979c-0.644,0.798 -1.166,1.734 -1.565,2.808c-0.399,1.074 -0.598,2.409 -0.598,4.004c-0,2.21 0.383,4.035 1.15,5.477c0.768,1.443 1.749,2.609 2.946,3.498c1.197,0.89 2.532,1.519 4.004,1.888c1.473,0.368 2.915,0.552 4.327,0.552c2.209,-0 4.219,-0.338 6.029,-1.013c1.811,-0.675 3.376,-1.58 4.695,-2.715c1.319,-1.136 2.332,-2.44 3.038,-3.912c0.706,-1.473 1.058,-3.008 1.058,-4.603c0,-3.437 -0.935,-5.876 -2.807,-7.318c-1.872,-1.442 -4.434,-2.164 -7.687,-2.164l-9.941,0Zm14.912,-29.917c0,-1.411 -0.092,-2.838 -0.276,-4.28c-0.184,-1.442 -0.568,-2.762 -1.151,-3.958c-0.583,-1.197 -1.472,-2.164 -2.669,-2.9c-1.197,-0.736 -2.808,-1.105 -4.833,-1.105c-3.13,0 -5.492,0.952 -7.088,2.854c-1.596,1.902 -2.393,5.032 -2.393,9.389c-0,1.841 0.138,3.498 0.414,4.971c0.276,1.473 0.782,2.746 1.519,3.82c0.736,1.074 1.718,1.887 2.945,2.44c1.228,0.552 2.793,0.828 4.695,0.828c3.191,0 5.462,-0.997 6.812,-2.991c1.35,-1.995 2.025,-5.017 2.025,-9.068Zm-28.72,21.172c-0,-1.656 0.307,-3.083 0.92,-4.28c0.614,-1.197 1.366,-2.24 2.256,-3.13c0.889,-0.89 1.841,-1.611 2.853,-2.163c1.013,-0.552 1.918,-1.013 2.716,-1.381c-3.56,-2.455 -5.339,-5.768 -5.339,-9.941c-0,-2.148 0.521,-4.081 1.565,-5.8c1.043,-1.718 2.362,-3.176 3.958,-4.372c1.595,-1.197 3.36,-2.102 5.293,-2.716c1.933,-0.614 3.789,-0.92 5.569,-0.92c2.762,-0 5.14,0.552 7.134,1.657c1.995,1.104 3.452,2.117 4.373,3.037c0.675,-1.166 1.672,-2.24 2.991,-3.222c1.32,-0.981 2.961,-1.472 4.925,-1.472c1.228,-0 2.363,0.26 3.406,0.782c1.043,0.522 1.565,1.642 1.565,3.36c0,1.105 -0.353,1.933 -1.059,2.485c-0.705,0.553 -1.426,0.829 -2.163,0.829c-0.859,-0 -1.473,-0.246 -1.841,-0.737c-0.368,-0.49 -0.69,-1.012 -0.966,-1.564c-0.277,-0.553 -0.568,-1.074 -0.875,-1.565c-0.307,-0.491 -0.767,-0.737 -1.381,-0.737c-0.613,0 -1.242,0.261 -1.887,0.783c-0.644,0.521 -1.212,1.12 -1.703,1.795c0.553,0.613 1.258,1.657 2.117,3.13c0.86,1.472 1.289,3.313 1.289,5.523c0,1.841 -0.46,3.528 -1.381,5.063c-0.92,1.534 -2.132,2.884 -3.636,4.05c-1.503,1.166 -3.252,2.071 -5.247,2.715c-1.994,0.645 -4.035,0.967 -6.121,0.967c-2.148,0 -4.02,-0.291 -5.615,-0.874c-1.596,-0.583 -2.823,-1.09 -3.682,-1.519c-0.676,0.306 -1.397,0.644 -2.164,1.012c-0.767,0.368 -1.473,0.829 -2.117,1.381c-0.644,0.552 -1.181,1.212 -1.611,1.979c-0.429,0.767 -0.644,1.642 -0.644,2.624c-0,0.92 0.184,1.687 0.552,2.301c0.368,0.614 0.844,1.074 1.427,1.381c0.583,0.307 1.243,0.521 1.979,0.644c0.736,0.123 1.504,0.184 2.301,0.184l14.545,0c4.295,0 7.717,1.028 10.264,3.084c2.546,2.056 3.82,5.293 3.82,9.712c-0,2.7 -0.583,5.154 -1.749,7.364c-1.166,2.209 -2.716,4.127 -4.649,5.753c-1.933,1.626 -4.158,2.884 -6.674,3.774c-2.516,0.89 -5.093,1.335 -7.732,1.335c-2.394,-0 -4.587,-0.276 -6.582,-0.829c-1.994,-0.552 -3.728,-1.304 -5.201,-2.255c-1.473,-0.951 -2.623,-2.102 -3.452,-3.452c-0.828,-1.35 -1.243,-2.853 -1.243,-4.51c0,-1.596 0.323,-3.053 0.967,-4.373c0.644,-1.319 1.473,-2.485 2.485,-3.498c1.013,-1.012 2.164,-1.887 3.452,-2.623c1.289,-0.737 2.578,-1.35 3.867,-1.841l-0,-0.185c-4.051,0 -7.042,-0.659 -8.976,-1.979c-1.933,-1.319 -2.899,-3.574 -2.899,-6.766Z" style="fill:#253c75;fill-rule:nonzero;"/></g><g><path d="M117.221,180.088l-0,36.854l-7.169,0l0,1.287l22.241,0l0,-1.287l-7.168,0l-0,-36.854l7.168,0l0,-1.286l-22.241,-0l0,1.286l7.169,0Z" style="fill:#ff6b9a;fill-rule:nonzero;"/><path d="M162.254,187.625l0,29.317l-24.355,0l4.32,-9.006c1.348,-2.88 2.88,-5.821 4.595,-8.823c1.716,-3.002 3.523,-5.913 5.422,-8.731c1.9,-2.819 3.799,-5.484 5.699,-7.996c1.899,-2.512 3.706,-4.687 5.422,-6.525c2.573,-2.757 4.748,-5.009 6.525,-6.755c1.777,-1.746 2.665,-3.048 2.665,-3.906c0,-1.348 -1.194,-2.022 -3.584,-2.022c-0.919,-0 -1.669,0.061 -2.251,0.184c-0.583,0.122 -1.18,0.444 -1.793,0.965c-0.612,0.521 -1.302,1.302 -2.068,2.343c-0.765,1.042 -1.792,2.512 -3.078,4.412c-4.963,7.413 -9.313,15.057 -13.051,22.93c-3.737,7.873 -7.26,15.946 -10.569,24.217l26.101,0l0,17.83c1.103,-0.491 2.42,-0.736 3.952,-0.736c1.532,0 2.849,0.245 3.952,0.736l-0,-17.83l8.088,0l-0,-1.287l-8.088,0l-0,-29.317l-7.904,-0Z" style="fill:#ff6b9a;fill-rule:nonzero;"/><path d="M185.23,214.369c0,-1.348 0.475,-2.497 1.425,-3.446c0.95,-0.95 2.098,-1.425 3.446,-1.425c1.348,0 2.497,0.475 3.447,1.425c0.949,0.949 1.424,2.098 1.424,3.446c0,1.348 -0.475,2.497 -1.424,3.446c-0.95,0.95 -2.099,1.425 -3.447,1.425c-1.348,-0 -2.496,-0.475 -3.446,-1.425c-0.95,-0.949 -1.425,-2.098 -1.425,-3.446Z" style="fill:#ff6b9a;fill-rule:nonzero;"/><path d="M216.294,199.297c0,-3.003 0.138,-5.744 0.414,-8.226c0.275,-2.481 0.842,-4.626 1.7,-6.433c0.858,-1.808 2.083,-3.217 3.676,-4.228c1.593,-1.011 3.676,-1.516 6.25,-1.516c2.696,-0 4.886,0.582 6.571,1.746c1.685,1.164 3.002,2.864 3.952,5.101c0.95,2.236 1.593,4.993 1.93,8.271c0.337,3.278 0.505,7 0.505,11.167c0,2.328 -0.383,4.319 -1.148,5.973c-0.766,1.655 -1.777,3.003 -3.033,4.044c-1.256,1.042 -2.696,1.808 -4.32,2.298c-1.624,0.49 -3.263,0.735 -4.917,0.735c-2.573,0 -4.626,-0.521 -6.157,-1.562c-1.532,-1.042 -2.696,-2.436 -3.493,-4.182c-0.796,-1.746 -1.317,-3.768 -1.562,-6.066c-0.245,-2.297 -0.368,-4.672 -0.368,-7.122Zm-9.19,-0.368c-0,2.88 0.551,5.576 1.654,8.088c1.103,2.512 2.589,4.687 4.457,6.525c1.869,1.838 4.044,3.278 6.526,4.319c2.481,1.042 5.131,1.563 7.949,1.563c3.125,-0 5.836,-0.674 8.134,-2.022c2.298,-1.348 4.028,-3.033 5.193,-5.055l0.183,0.184c-0.428,3.921 -1.056,7.781 -1.884,11.58c-0.827,3.799 -1.945,7.199 -3.354,10.201c-1.409,3.003 -3.217,5.423 -5.423,7.261c-2.205,1.838 -4.901,2.757 -8.087,2.757c-1.654,0 -3.033,-0.368 -4.136,-1.103c-1.103,-0.735 -1.654,-1.807 -1.654,-3.217c-0,-0.796 0.122,-1.516 0.367,-2.159c0.246,-0.644 0.521,-1.241 0.828,-1.792c0.306,-0.552 0.582,-1.088 0.827,-1.609c0.245,-0.521 0.367,-1.026 0.367,-1.516c0,-0.797 -0.337,-1.471 -1.011,-2.022c-0.674,-0.552 -1.746,-0.827 -3.216,-0.827c-1.593,-0 -2.865,0.398 -3.814,1.195c-0.95,0.796 -1.425,1.96 -1.425,3.492c0,1.225 0.245,2.481 0.735,3.768c0.491,1.287 1.241,2.451 2.252,3.492c1.011,1.042 2.298,1.9 3.86,2.574c1.562,0.674 3.385,1.011 5.468,1.011c3.432,-0 6.817,-0.95 10.156,-2.849c3.339,-1.9 6.311,-4.596 8.915,-8.088c2.604,-3.492 4.717,-7.735 6.341,-12.729c1.624,-4.993 2.436,-10.584 2.436,-16.772c-0,-4.289 -0.582,-8.134 -1.747,-11.535c-1.164,-3.4 -2.711,-6.295 -4.641,-8.685c-1.93,-2.389 -4.181,-4.212 -6.755,-5.468c-2.573,-1.256 -5.3,-1.884 -8.179,-1.884c-2.635,0 -5.224,0.536 -7.766,1.608c-2.543,1.073 -4.825,2.558 -6.847,4.458c-2.022,1.899 -3.646,4.151 -4.871,6.755c-1.226,2.604 -1.838,5.438 -1.838,8.501Z" style="fill:#ff6b9a;fill-rule:nonzero;"/><path d="M261.879,214.369c0,-1.348 0.475,-2.497 1.425,-3.446c0.949,-0.95 2.098,-1.425 3.446,-1.425c1.348,0 2.497,0.475 3.446,1.425c0.95,0.949 1.425,2.098 1.425,3.446c-0,1.348 -0.475,2.497 -1.425,3.446c-0.949,0.95 -2.098,1.425 -3.446,1.425c-1.348,-0 -2.497,-0.475 -3.446,-1.425c-0.95,-0.949 -1.425,-2.098 -1.425,-3.446Z" style="fill:#ff6b9a;fill-rule:nonzero;"/><path d="M282.374,217.126l-0,1.103l36.486,0l0,-10.11l-0.919,0c-0.368,1.839 -0.888,3.34 -1.562,4.504c-0.674,1.164 -1.547,2.068 -2.62,2.711c-1.072,0.643 -2.389,1.072 -3.952,1.287c-1.562,0.214 -3.415,0.321 -5.56,0.321l-17.002,0l-0.184,-0.183c1.654,-0.613 3.569,-1.41 5.744,-2.39c2.175,-0.98 4.427,-2.114 6.755,-3.4c2.328,-1.287 4.611,-2.712 6.847,-4.274c2.236,-1.562 4.243,-3.232 6.02,-5.009c1.777,-1.777 3.201,-3.645 4.273,-5.606c1.073,-1.961 1.609,-3.983 1.609,-6.066c-0,-1.593 -0.322,-3.125 -0.965,-4.595c-0.644,-1.47 -1.685,-2.788 -3.125,-3.952c-1.44,-1.164 -3.278,-2.098 -5.514,-2.803c-2.237,-0.705 -4.979,-1.057 -8.226,-1.057c-3.002,0 -5.56,0.352 -7.674,1.057c-2.114,0.705 -3.814,1.624 -5.101,2.757c-1.286,1.134 -2.221,2.39 -2.803,3.768c-0.582,1.379 -0.873,2.773 -0.873,4.182c0,1.164 0.322,2.098 0.965,2.803c0.643,0.705 1.7,1.057 3.171,1.057c1.348,-0 2.359,-0.291 3.033,-0.873c0.674,-0.582 1.011,-1.241 1.011,-1.976c-0,-0.797 -0.184,-1.639 -0.552,-2.528c-0.367,-0.888 -0.551,-1.884 -0.551,-2.986c-0,-1.777 0.781,-3.217 2.343,-4.32c1.563,-1.103 3.814,-1.654 6.755,-1.654c2.941,-0 5.208,0.888 6.801,2.665c1.593,1.777 2.39,4.32 2.39,7.628c-0,3.186 -0.659,6.296 -1.976,9.328c-1.317,3.033 -3.355,5.836 -6.112,8.41c-1.593,1.47 -3.324,2.788 -5.192,3.952c-1.869,1.164 -3.692,2.19 -5.469,3.078c-1.777,0.889 -3.4,1.593 -4.871,2.114c-1.47,0.521 -2.604,0.873 -3.4,1.057Z" style="fill:#ff6b9a;fill-rule:nonzero;"/><path d="M349.464,187.625l0,29.317l-24.354,0l4.319,-9.006c1.348,-2.88 2.88,-5.821 4.595,-8.823c1.716,-3.002 3.523,-5.913 5.423,-8.731c1.899,-2.819 3.798,-5.484 5.698,-7.996c1.899,-2.512 3.707,-4.687 5.422,-6.525c2.574,-2.757 4.749,-5.009 6.525,-6.755c1.777,-1.746 2.666,-3.048 2.666,-3.906c-0,-1.348 -1.195,-2.022 -3.585,-2.022c-0.919,-0 -1.669,0.061 -2.251,0.184c-0.582,0.122 -1.18,0.444 -1.792,0.965c-0.613,0.521 -1.302,1.302 -2.068,2.343c-0.766,1.042 -1.792,2.512 -3.079,4.412c-4.963,7.413 -9.313,15.057 -13.051,22.93c-3.737,7.873 -7.26,15.946 -10.569,24.217l26.101,0l0,17.83c1.103,-0.491 2.421,-0.736 3.952,-0.736c1.532,0 2.849,0.245 3.952,0.736l0,-17.83l8.088,0l-0,-1.287l-8.088,0l0,-29.317l-7.904,-0Z" style="fill:#ff6b9a;fill-rule:nonzero;"/></g></g></g></svg>
